<svg width="49" height="48" viewBox="0 0 49 48" fill="none" xmlns="http://www.w3.org/2000/svg">
<g id="icon-facebook">
<path id="Vector" d="M48.1587 24C48.1587 10.7415 37.4082 0 24.1587 0C10.9002 0 0.158691 10.7415 0.158691 24C0.158691 35.976 8.9322 45.9061 20.4087 47.7046V30.939H14.3142V24.0015H20.4087V18.711C20.4087 12.6975 23.9862 9.37651 29.4702 9.37651C32.0967 9.37651 34.8462 9.84451 34.8462 9.84451V15.75H31.8147C28.8387 15.75 27.9087 17.6025 27.9087 19.5V24H34.5642L33.4947 30.9375H27.9087V47.7031C39.3762 45.9046 48.1587 35.9745 48.1587 23.9985V24Z" fill="black"/>
</g>
</svg>
